<svg width="81" height="82" viewBox="0 0 81 82" fill="D9D9D9" xmlns="http://www.w3.org/2000/svg">
<path d="M0.0745838 47.2246C1.2666 55.1822 4.7887 62.5892 10.1955 68.5087C15.6023 74.4282 22.651 78.5945 30.4502 80.4807C38.2493 82.3668 46.4488 81.8882 54.0115 79.1052C61.5743 76.3222 68.1607 71.36 72.9379 64.846C77.7152 58.3319 80.4686 50.5586 80.8501 42.5091C81.2315 34.4596 79.2239 26.4954 75.0811 19.6236C70.9382 12.7518 64.8462 7.28107 57.5754 3.9032C50.3046 0.525322 42.1816 -0.607972 34.2336 0.646626L39.2773 34.3178C40.5739 34.1131 41.899 34.298 43.0851 34.849C44.2712 35.4 45.265 36.2925 45.9408 37.4135C46.6166 38.5345 46.9441 39.8337 46.8819 41.1468C46.8197 42.4599 46.3705 43.728 45.5912 44.7906C44.8119 45.8532 43.7374 46.6627 42.5037 47.1167C41.27 47.5707 39.9324 47.6488 38.6602 47.3411C37.3879 47.0334 36.238 46.3537 35.356 45.3881C34.474 44.4224 33.8994 43.2142 33.705 41.916L0.0745838 47.2246Z" fill="#F08008"/>
</svg>
