<svg width="344" height="342" viewBox="0 0 344 342" fill="none" xmlns="http://www.w3.org/2000/svg">
<g clip-path="url(#clip0_34_47)" filter="url(#filter0_ddf_34_47)">
<path d="M230.042 101.456C221.645 98.9224 212.702 103.72 210.169 112.117C207.636 120.514 212.433 129.457 220.83 131.99C229.227 134.523 238.17 129.725 240.703 121.328C243.236 112.932 238.438 103.989 230.042 101.456ZM223.133 124.356C218.934 123.09 216.536 118.618 217.802 114.42C219.069 110.221 223.54 107.823 227.739 109.089C231.937 110.356 234.336 114.827 233.069 119.026C231.803 123.224 227.331 125.623 223.133 124.356Z" fill="#0E0D0D" fill-opacity="0.53"/>
<path d="M157.523 79.5783C149.126 77.0451 140.183 81.8428 137.65 90.2397C135.116 98.6366 139.914 107.579 148.311 110.113C156.708 112.646 165.651 107.848 168.184 99.4512C170.717 91.0543 165.919 82.1115 157.523 79.5783ZM150.614 102.479C146.415 101.212 144.017 96.741 145.283 92.5426C146.55 88.3441 151.021 85.9453 155.22 87.2119C159.418 88.4785 161.817 92.9498 160.55 97.1483C159.284 101.347 154.812 103.746 150.614 102.479Z" fill="#0E0D0D" fill-opacity="0.53"/>
<path d="M302.56 123.333C294.163 120.8 285.221 125.597 282.687 133.994C280.154 142.391 284.952 151.334 293.349 153.867C301.746 156.4 310.689 151.603 313.222 143.206C315.755 134.809 310.957 125.866 302.56 123.333ZM295.652 146.234C291.453 144.967 289.054 140.496 290.321 136.297C291.588 132.099 296.059 129.7 300.257 130.966C304.456 132.233 306.855 136.704 305.588 140.903C304.322 145.101 299.85 147.5 295.652 146.234Z" fill="#0E0D0D" fill-opacity="0.53"/>
<path d="M448.012 220.93C450.43 212.914 449.679 204.36 445.681 196.907C441.683 189.455 434.971 184.099 426.955 181.681C418.94 179.263 410.385 180.013 402.933 184.011C401.867 182.024 399.577 181.333 397.59 182.399L323.066 222.38L336.078 179.25L352.198 125.815C352.889 123.525 351.822 121.538 349.532 120.847L120.144 51.6454C117.854 50.9545 115.866 52.0207 115.175 54.3107L99.0554 107.746L29.9692 336.753C29.2784 339.043 30.3445 341.03 32.6346 341.721L261.642 410.807C262.023 410.922 262.787 411.153 263.283 410.886C263.283 410.886 263.665 411.001 263.78 410.619C264.162 410.735 264.277 410.353 264.659 410.468L265.156 410.201C265.271 409.82 265.652 409.935 265.768 409.553L265.883 409.172L265.998 408.79C265.998 408.79 265.998 408.79 266.113 408.408C266.113 408.408 266.113 408.408 266.228 408.027L292.711 320.241C292.826 319.859 292.941 319.477 292.675 318.98L412.906 254.479L430.295 245.15C431.288 244.617 431.9 243.969 432.246 242.824C432.591 241.679 432.44 240.8 431.907 239.807C440.237 235.657 445.479 229.327 448.012 220.93ZM424.653 189.314C430.759 191.157 435.794 195.174 438.726 200.639C441.658 206.104 442.22 212.52 440.378 218.627C438.536 224.734 434.519 229.768 429.054 232.7L406.665 190.967C412.13 188.035 418.546 187.472 424.653 189.314ZM266.968 324.134L261.371 313.701L400.481 239.071L406.078 249.504L266.968 324.134ZM222.088 307.263L230.084 322.168L215.156 320.579L222.088 307.263ZM239.438 322.908L226.645 299.061L235.491 282.158L258.413 324.885L239.438 322.908ZM257.639 306.745L250.176 292.834L389.287 218.205L396.75 232.116L257.639 306.745ZM246.445 285.879L240.848 275.446L379.958 200.816L385.555 211.249L246.445 285.879ZM121.658 60.4304L343.031 127.214L329.214 173.015L107.84 106.232L121.658 60.4304ZM38.7542 335.239L68.231 237.529C92.1743 311.379 158.008 359.555 206.311 385.787L38.7542 335.239ZM74.8837 232.041C104.26 249.231 135.291 258.176 166.832 258.53C165.431 275.597 165.147 335.891 230.63 389.375C183.696 366.888 100.147 316.699 74.8837 232.041ZM260.473 400.877C160.143 337.297 175.084 256.023 175.314 255.259C175.66 254.114 175.242 252.739 174.593 252.127C173.679 251.018 172.534 250.673 171.389 250.327C137.479 250.924 104.655 241.022 73.067 221.499L105.537 113.865L326.911 180.649L313.094 226.45C312.979 226.832 312.863 227.213 313.13 227.71L233.638 270.356C233.638 270.356 233.638 270.356 233.523 270.737C233.408 271.119 233.026 271.004 232.911 271.386C232.796 271.767 232.415 271.652 232.299 272.034L232.184 272.416L205.377 322.627C204.65 323.656 204.571 325.298 205.486 326.407C206.019 327.401 206.667 328.013 207.812 328.358C208.194 328.473 208.194 328.473 208.576 328.588L265.235 334.021L265.616 334.137C265.998 334.252 265.998 334.252 266.495 333.985C266.876 334.1 266.992 333.719 267.373 333.834L267.755 333.949L284.15 325.153L261.236 401.107L260.473 400.877ZM413.531 245.506L387.41 196.818L397.843 191.221L423.964 239.909L413.531 245.506Z" fill="#0E0D0D" fill-opacity="0.53"/>
<path d="M148.247 151.735L270.384 188.581C272.674 189.272 274.661 188.205 275.352 185.915C276.043 183.625 274.977 181.638 272.687 180.947L150.55 144.101C148.26 143.41 146.273 144.476 145.582 146.766C144.891 149.057 145.957 151.044 148.247 151.735Z" fill="#0E0D0D" fill-opacity="0.53"/>
<path d="M106.987 164.272L297.826 221.844C300.117 222.535 302.104 221.469 302.795 219.179C303.486 216.889 302.419 214.902 300.129 214.211L109.29 156.639C107 155.948 105.013 157.014 104.322 159.304C103.631 161.594 104.697 163.582 106.987 164.272Z" fill="#0E0D0D" fill-opacity="0.53"/>
<path d="M101.23 183.356L280.619 237.474C282.909 238.165 284.896 237.099 285.587 234.809C286.278 232.518 285.212 230.531 282.922 229.84L103.533 175.723C101.243 175.032 99.2557 176.098 98.5649 178.388C97.874 180.678 98.9402 182.666 101.23 183.356Z" fill="#0E0D0D" fill-opacity="0.53"/>
<path d="M95.4731 202.44L255.778 250.801C258.068 251.492 260.055 250.425 260.746 248.135C261.437 245.845 260.371 243.858 258.081 243.167L97.776 194.807C95.4859 194.116 93.4987 195.182 92.8078 197.472C92.1169 199.762 93.1831 201.749 95.4731 202.44Z" fill="#0E0D0D" fill-opacity="0.53"/>
<path d="M232.088 260.311C232.779 258.02 231.713 256.033 229.423 255.342L92.0187 213.891C89.7286 213.2 87.7413 214.266 87.0505 216.556C86.3596 218.846 87.4257 220.833 89.7158 221.524L227.12 262.976C229.41 263.667 231.397 262.601 232.088 260.311Z" fill="#0E0D0D" fill-opacity="0.53"/>
</g>
<defs>
<filter id="filter0_ddf_34_47" x="-12.9002" y="-12.9" width="522.733" height="558.09" filterUnits="userSpaceOnUse" color-interpolation-filters="sRGB">
<feFlood flood-opacity="0" result="BackgroundImageFix"/>
<feColorMatrix in="SourceAlpha" type="matrix" values="0 0 0 0 0 0 0 0 0 0 0 0 0 0 0 0 0 0 127 0" result="hardAlpha"/>
<feMorphology radius="4" operator="dilate" in="SourceAlpha" result="effect1_dropShadow_34_47"/>
<feOffset dy="40"/>
<feGaussianBlur stdDeviation="2"/>
<feColorMatrix type="matrix" values="0 0 0 0 0 0 0 0 0 0 0 0 0 0 0 0 0 0 0.25 0"/>
<feBlend mode="normal" in2="BackgroundImageFix" result="effect1_dropShadow_34_47"/>
<feColorMatrix in="SourceAlpha" type="matrix" values="0 0 0 0 0 0 0 0 0 0 0 0 0 0 0 0 0 0 127 0" result="hardAlpha"/>
<feOffset dy="4"/>
<feGaussianBlur stdDeviation="2"/>
<feComposite in2="hardAlpha" operator="out"/>
<feColorMatrix type="matrix" values="0 0 0 0 0 0 0 0 0 0 0 0 0 0 0 0 0 0 0.25 0"/>
<feBlend mode="normal" in2="effect1_dropShadow_34_47" result="effect2_dropShadow_34_47"/>
<feBlend mode="normal" in="SourceGraphic" in2="effect2_dropShadow_34_47" result="shape"/>
<feGaussianBlur stdDeviation="6.45" result="effect3_foregroundBlur_34_47"/>
</filter>
<clipPath id="clip0_34_47">
<rect width="398.668" height="399.053" fill="white" transform="translate(115.254) rotate(16.7874)"/>
</clipPath>
</defs>
</svg>
