<svg width="275" height="275" viewBox="0 0 275 275" fill="none" xmlns="http://www.w3.org/2000/svg">
<g clip-path="url(#clip0_31_9)" filter="url(#filter0_dd_31_9)">
<path d="M127.029 56.0239C122.392 54.625 117.454 57.2743 116.055 61.9111C114.657 66.5479 117.306 71.4861 121.943 72.8849C126.579 74.2837 131.518 71.6345 132.916 66.9977C134.315 62.3609 131.666 57.4227 127.029 56.0239ZM123.214 68.6696C120.896 67.9702 119.571 65.5011 120.271 63.1827C120.97 60.8643 123.439 59.5397 125.758 60.2391C128.076 60.9385 129.401 63.4076 128.701 65.726C128.002 68.0444 125.533 69.369 123.214 68.6696Z" fill="#FFFBFB"/>
<path d="M86.9842 43.9432C82.3474 42.5444 77.4092 45.1937 76.0104 49.8305C74.6116 54.4672 77.2609 59.4055 81.8976 60.8043C86.5344 62.2031 91.4726 59.5538 92.8715 54.917C94.2703 50.2803 91.621 45.342 86.9842 43.9432ZM83.1693 56.589C80.8509 55.8896 79.5263 53.4205 80.2257 51.1021C80.9251 48.7837 83.3942 47.4591 85.7126 48.1585C88.031 48.8579 89.3556 51.327 88.6562 53.6454C87.9568 55.9638 85.4877 57.2884 83.1693 56.589Z" fill="#FFFBFB"/>
<path d="M167.074 68.1045C162.437 66.7057 157.499 69.355 156.1 73.9917C154.702 78.6285 157.351 83.5667 161.988 84.9656C166.624 86.3644 171.563 83.7151 172.961 79.0783C174.36 74.4415 171.711 69.5033 167.074 68.1045ZM163.259 80.7503C160.941 80.0509 159.616 77.5818 160.316 75.2634C161.015 72.945 163.484 71.6204 165.803 72.3198C168.121 73.0192 169.446 75.4883 168.746 77.8067C168.047 80.1251 165.578 81.4497 163.259 80.7503Z" fill="#FFFBFB"/>
<path d="M247.393 121.998C248.728 117.572 248.313 112.848 246.106 108.732C243.898 104.617 240.191 101.659 235.765 100.324C231.339 98.989 226.615 99.4035 222.5 101.611C221.911 100.514 220.647 100.132 219.549 100.721L178.398 122.798L185.582 98.9819L194.484 69.4751C194.866 68.2105 194.277 67.1131 193.012 66.7316L66.3436 28.5186C65.079 28.1371 63.9816 28.7259 63.6001 29.9904L54.6986 59.4973L16.5492 185.955C16.1677 187.22 16.7564 188.317 18.021 188.699L144.479 226.848C144.69 226.912 145.111 227.039 145.385 226.892C145.385 226.892 145.596 226.955 145.66 226.744C145.871 226.808 145.934 226.597 146.145 226.661L146.419 226.514C146.483 226.303 146.694 226.366 146.757 226.156L146.821 225.945L146.884 225.734C146.884 225.734 146.884 225.734 146.948 225.523C146.948 225.523 146.948 225.523 147.012 225.313L161.635 176.837C161.699 176.626 161.763 176.416 161.615 176.141L228.007 140.524L237.609 135.372C238.158 135.078 238.496 134.72 238.687 134.088C238.877 133.455 238.794 132.97 238.499 132.421C243.1 130.13 245.994 126.634 247.393 121.998ZM234.494 104.54C237.866 105.557 240.646 107.775 242.265 110.793C243.884 113.811 244.195 117.354 243.177 120.726C242.16 124.098 239.942 126.878 236.924 128.497L224.561 105.452C227.579 103.833 231.121 103.522 234.494 104.54ZM147.42 178.987L144.329 173.226L221.146 132.015L224.237 137.777L147.42 178.987ZM122.637 169.671L127.053 177.901L118.809 177.024L122.637 169.671ZM132.218 178.31L125.153 165.141L130.039 155.808L142.696 179.402L132.218 178.31ZM142.269 169.385L138.148 161.703L214.964 120.493L219.086 128.174L142.269 169.385ZM136.087 157.863L132.996 152.101L209.813 110.891L212.904 116.652L136.087 157.863ZM67.1796 33.3697L189.422 70.2475L181.792 95.5391L59.5497 58.6613L67.1796 33.3697ZM21.4003 185.119L37.6774 131.164C50.8989 171.944 87.2526 198.547 113.925 213.032L21.4003 185.119ZM41.351 128.133C57.5727 137.626 74.7081 142.565 92.1249 142.761C91.3513 152.185 91.1947 185.48 127.354 215.013C101.437 202.596 55.3014 174.881 41.351 128.133ZM143.834 221.365C88.4312 186.255 96.6816 141.376 96.8088 140.954C96.9995 140.322 96.7687 139.563 96.4108 139.225C95.9057 138.612 95.2734 138.422 94.6411 138.231C75.9161 138.561 57.7905 133.092 40.3478 122.312L58.278 62.8766L180.521 99.7543L172.891 125.046C172.827 125.257 172.764 125.467 172.911 125.742L129.015 149.291C129.015 149.291 129.015 149.291 128.952 149.501C128.888 149.712 128.678 149.649 128.614 149.859C128.55 150.07 128.34 150.007 128.276 150.217L128.212 150.428L113.41 178.155C113.008 178.723 112.964 179.63 113.47 180.242C113.764 180.791 114.122 181.129 114.754 181.32C114.965 181.383 114.965 181.383 115.176 181.447L146.463 184.447L146.674 184.511C146.884 184.574 146.884 184.574 147.159 184.427C147.37 184.49 147.433 184.28 147.644 184.343L147.855 184.407L156.908 179.55L144.255 221.492L143.834 221.365ZM228.352 135.569L213.928 108.683L219.69 105.592L234.113 132.478L228.352 135.569Z" fill="#FFFBFB"/>
<path d="M81.8623 83.788L149.306 104.134C150.571 104.516 151.668 103.927 152.05 102.663C152.431 101.398 151.843 100.301 150.578 99.9191L83.1339 79.5728C81.8694 79.1913 80.772 79.78 80.3905 81.0446C80.009 82.3092 80.5977 83.4065 81.8623 83.788Z" fill="#FFFBFB"/>
<path d="M59.0787 90.7114L164.46 122.503C165.725 122.884 166.822 122.295 167.204 121.031C167.585 119.766 166.996 118.669 165.732 118.287L60.3503 86.4961C59.0857 86.1147 57.9883 86.7034 57.6069 87.968C57.2254 89.2325 57.8141 90.3299 59.0787 90.7114Z" fill="#FFFBFB"/>
<path d="M55.8996 101.25L154.958 131.133C156.223 131.515 157.32 130.926 157.702 129.661C158.083 128.397 157.494 127.299 156.23 126.918L57.1712 97.0343C55.9067 96.6528 54.8093 97.2415 54.4278 98.5061C54.0463 99.7707 54.635 100.868 55.8996 101.25Z" fill="#FFFBFB"/>
<path d="M52.7204 111.788L141.241 138.492C142.506 138.874 143.603 138.285 143.984 137.02C144.366 135.756 143.777 134.659 142.513 134.277L53.9921 107.572C52.7275 107.191 51.6301 107.78 51.2486 109.044C50.8671 110.309 51.4559 111.406 52.7204 111.788Z" fill="#FFFBFB"/>
<path d="M128.159 143.744C128.541 142.479 127.952 141.382 126.688 141L50.813 118.111C49.5484 117.729 48.451 118.318 48.0695 119.582C47.688 120.847 48.2767 121.944 49.5413 122.326L125.416 145.216C126.681 145.597 127.778 145.008 128.159 143.744Z" fill="#FFFBFB"/>
</g>
<defs>
<filter id="filter0_dd_31_9" x="-8" y="0" width="290.407" height="322.549" filterUnits="userSpaceOnUse" color-interpolation-filters="sRGB">
<feFlood flood-opacity="0" result="BackgroundImageFix"/>
<feColorMatrix in="SourceAlpha" type="matrix" values="0 0 0 0 0 0 0 0 0 0 0 0 0 0 0 0 0 0 127 0" result="hardAlpha"/>
<feMorphology radius="4" operator="dilate" in="SourceAlpha" result="effect1_dropShadow_31_9"/>
<feOffset dy="40"/>
<feGaussianBlur stdDeviation="2"/>
<feColorMatrix type="matrix" values="0 0 0 0 0 0 0 0 0 0 0 0 0 0 0 0 0 0 0.25 0"/>
<feBlend mode="normal" in2="BackgroundImageFix" result="effect1_dropShadow_31_9"/>
<feColorMatrix in="SourceAlpha" type="matrix" values="0 0 0 0 0 0 0 0 0 0 0 0 0 0 0 0 0 0 127 0" result="hardAlpha"/>
<feOffset dy="4"/>
<feGaussianBlur stdDeviation="2"/>
<feComposite in2="hardAlpha" operator="out"/>
<feColorMatrix type="matrix" values="0 0 0 0 0 0 0 0 0 0 0 0 0 0 0 0 0 0 0.25 0"/>
<feBlend mode="normal" in2="effect1_dropShadow_31_9" result="effect2_dropShadow_31_9"/>
<feBlend mode="normal" in="SourceGraphic" in2="effect2_dropShadow_31_9" result="shape"/>
</filter>
<clipPath id="clip0_31_9">
<rect width="220.145" height="220.357" fill="white" transform="translate(63.6437) rotate(16.7874)"/>
</clipPath>
</defs>
</svg>
