<svg width="597" height="586" viewBox="0 0 597 586" fill="none" xmlns="http://www.w3.org/2000/svg">
<g clip-path="url(#clip0_34_32)" filter="url(#filter0_ddf_34_32)">
<path d="M274.52 120.283C264.349 117.215 253.606 122.734 250.645 132.548C247.685 142.361 253.584 152.901 263.754 155.969C273.925 159.038 284.668 153.518 287.629 143.705C290.59 133.891 284.691 123.351 274.52 120.283ZM266.446 147.048C261.36 145.514 258.411 140.244 259.891 135.337C261.371 130.43 266.743 127.67 271.829 129.204C276.914 130.739 279.863 136.009 278.383 140.915C276.903 145.822 271.531 148.582 266.446 147.048Z" fill="black" fill-opacity="0.48"/>
<path d="M186.683 93.7846C176.513 90.7164 165.769 96.2355 162.809 106.049C159.848 115.863 165.747 126.403 175.918 129.471C186.088 132.539 196.832 127.02 199.792 117.206C202.753 107.393 196.854 96.8529 186.683 93.7846ZM178.609 120.549C173.524 119.015 170.574 113.745 172.055 108.839C173.535 103.932 178.907 101.172 183.992 102.706C189.077 104.24 192.027 109.51 190.547 114.417C189.066 119.324 183.694 122.084 178.609 120.549Z" fill="black" fill-opacity="0.48"/>
<path d="M362.357 146.781C352.186 143.713 341.442 149.232 338.482 159.046C335.521 168.86 341.42 179.399 351.591 182.468C361.761 185.536 372.505 180.017 375.466 170.203C378.426 160.389 372.527 149.849 362.357 146.781ZM354.282 173.546C349.197 172.012 346.248 166.742 347.728 161.835C349.208 156.928 354.58 154.169 359.665 155.703C364.75 157.237 367.7 162.507 366.22 167.414C364.739 172.321 359.368 175.08 354.282 173.546Z" fill="black" fill-opacity="0.48"/>
<path d="M539.162 262.901C541.988 253.533 540.981 243.496 536.065 234.713C531.149 225.929 522.98 219.571 513.272 216.643C503.563 213.714 493.241 214.493 484.288 219.093C482.977 216.75 480.203 215.914 477.816 217.14L388.285 263.132L403.492 212.725L422.332 150.274C423.139 147.597 421.828 145.255 419.055 144.419L141.214 60.6003C138.44 59.7635 136.052 60.99 135.245 63.6664L116.405 126.118L35.6613 393.766C34.8539 396.443 36.1648 398.785 38.9386 399.622L316.317 483.301C316.78 483.44 317.704 483.719 318.301 483.412C318.301 483.412 318.763 483.552 318.898 483.106C319.36 483.245 319.495 482.799 319.957 482.939L320.554 482.632C320.689 482.186 321.151 482.325 321.285 481.879L321.42 481.433L321.555 480.987C321.555 480.987 321.555 480.987 321.689 480.541C321.689 480.541 321.689 480.541 321.824 480.095L352.775 377.496C352.91 377.05 353.045 376.604 352.717 376.019L497.159 301.817L518.05 291.086C519.244 290.473 519.975 289.72 520.379 288.382C520.782 287.043 520.589 286.012 519.934 284.841C529.946 280.074 536.201 272.715 539.162 262.901ZM510.58 225.564C517.977 227.796 524.104 232.564 527.709 239.005C531.314 245.446 532.069 252.974 529.916 260.111C527.763 267.249 522.97 273.103 516.405 276.476L488.876 227.29C495.441 223.917 503.183 223.333 510.58 225.564ZM321.732 381.758L314.85 369.462L481.973 283.609L488.855 295.906L321.732 381.758ZM267.333 361.454L277.164 379.02L259.117 376.982L267.333 361.454ZM288.47 379.997L272.739 351.891L283.225 332.181L311.409 382.538L288.47 379.997ZM310.261 361.264L301.085 344.869L468.209 259.016L477.385 275.412L310.261 361.264ZM296.497 336.671L289.615 324.375L456.738 238.522L463.621 250.819L296.497 336.671ZM143.145 70.9165L411.278 151.806L395.129 205.336L126.996 124.446L143.145 70.9165ZM46.253 392.095L80.7035 277.898C110.487 364.752 190.56 422.002 249.202 453.32L46.253 392.095ZM88.6734 271.542C124.353 292.039 161.933 302.89 200.029 303.675C198.537 323.666 198.903 394.345 278.613 457.812C221.668 430.9 120.178 371.082 88.6734 271.542ZM314.789 471.646C192.876 395.933 209.965 300.833 210.234 299.941C210.638 298.602 210.117 296.985 209.327 296.26C208.209 294.95 206.822 294.531 205.435 294.113C164.49 294.414 124.733 282.42 86.3556 259.163L124.305 133.368L392.438 214.257L376.289 267.787C376.154 268.233 376.02 268.679 376.348 269.265L280.848 318.323C280.848 318.323 280.848 318.323 280.714 318.769C280.579 319.216 280.117 319.076 279.982 319.522C279.848 319.968 279.386 319.829 279.251 320.275L279.116 320.721L247.332 379.267C246.466 380.466 246.39 382.39 247.508 383.7C248.163 384.871 248.953 385.596 250.34 386.015C250.802 386.154 250.802 386.154 251.265 386.294L319.754 393.329L320.217 393.468C320.679 393.608 320.679 393.607 321.276 393.301C321.738 393.44 321.873 392.994 322.335 393.134L322.797 393.273L342.494 383.155L315.714 471.925L314.789 471.646ZM497.808 291.306L465.691 233.923L478.226 227.484L510.343 284.867L497.808 291.306Z" fill="black" fill-opacity="0.48"/>
<path d="M176.329 178.263L324.265 222.892C327.038 223.729 329.426 222.502 330.233 219.826C331.041 217.149 329.73 214.807 326.956 213.97L179.021 169.341C176.247 168.505 173.86 169.731 173.052 172.408C172.245 175.084 173.556 177.426 176.329 178.263Z" fill="black" fill-opacity="0.48"/>
<path d="M126.648 192.476L357.797 262.208C360.571 263.045 362.958 261.819 363.766 259.142C364.573 256.466 363.262 254.124 360.489 253.287L129.34 183.555C126.566 182.718 124.178 183.944 123.371 186.621C122.564 189.297 123.874 191.639 126.648 192.476Z" fill="black" fill-opacity="0.48"/>
<path d="M119.92 214.78L337.2 280.329C339.973 281.165 342.361 279.939 343.168 277.262C343.976 274.586 342.665 272.244 339.891 271.407L122.611 205.859C119.837 205.022 117.45 206.248 116.642 208.925C115.835 211.601 117.146 213.943 119.92 214.78Z" fill="black" fill-opacity="0.48"/>
<path d="M113.191 237.084L307.356 295.659C310.13 296.496 312.517 295.27 313.325 292.593C314.132 289.917 312.821 287.575 310.048 286.738L115.882 228.163C113.109 227.326 110.721 228.552 109.914 231.229C109.106 233.905 110.417 236.247 113.191 237.084Z" fill="black" fill-opacity="0.48"/>
<path d="M278.858 306.529C279.666 303.853 278.355 301.511 275.581 300.674L109.154 250.467C106.38 249.63 103.992 250.856 103.185 253.533C102.378 256.209 103.689 258.551 106.462 259.388L272.89 309.596C275.663 310.432 278.051 309.206 278.858 306.529Z" fill="black" fill-opacity="0.48"/>
</g>
<defs>
<filter id="filter0_ddf_34_32" x="-12.9" y="-12.9" width="622.8" height="646.875" filterUnits="userSpaceOnUse" color-interpolation-filters="sRGB">
<feFlood flood-opacity="0" result="BackgroundImageFix"/>
<feColorMatrix in="SourceAlpha" type="matrix" values="0 0 0 0 0 0 0 0 0 0 0 0 0 0 0 0 0 0 127 0" result="hardAlpha"/>
<feMorphology radius="4" operator="dilate" in="SourceAlpha" result="effect1_dropShadow_34_32"/>
<feOffset dy="40"/>
<feGaussianBlur stdDeviation="2"/>
<feColorMatrix type="matrix" values="0 0 0 0 0 0 0 0 0 0 0 0 0 0 0 0 0 0 0.25 0"/>
<feBlend mode="normal" in2="BackgroundImageFix" result="effect1_dropShadow_34_32"/>
<feColorMatrix in="SourceAlpha" type="matrix" values="0 0 0 0 0 0 0 0 0 0 0 0 0 0 0 0 0 0 127 0" result="hardAlpha"/>
<feOffset dy="4"/>
<feGaussianBlur stdDeviation="2"/>
<feComposite in2="hardAlpha" operator="out"/>
<feColorMatrix type="matrix" values="0 0 0 0 0 0 0 0 0 0 0 0 0 0 0 0 0 0 0.25 0"/>
<feBlend mode="normal" in2="effect1_dropShadow_34_32" result="effect2_dropShadow_34_32"/>
<feBlend mode="normal" in="SourceGraphic" in2="effect2_dropShadow_34_32" result="shape"/>
<feGaussianBlur stdDeviation="6.45" result="effect3_foregroundBlur_34_32"/>
</filter>
<clipPath id="clip0_34_32">
<rect width="482.876" height="466.387" fill="white" transform="translate(134.702) rotate(16.7874)"/>
</clipPath>
</defs>
</svg>
